<svg xmlns="http://www.w3.org/2000/svg" viewBox="250.258 26.258 33.767 33.767">
  <defs>
    <style>
      .cls-1 {
        fill: #507cdd;
      }
    </style>
  </defs>
  <g id="Group_83" data-name="Group 83" transform="translate(261.258 20.258)">
    <path id="Path_21" data-name="Path 21" class="cls-1" d="M16.884,0A16.862,16.862,0,0,0,4.745,28.588c.04.04.079.119.158.158a16.852,16.852,0,0,0,11.981,5.022,16.623,16.623,0,0,0,11.981-5.022c.079-.04.119-.119.158-.158A16.862,16.862,0,0,0,16.884,0ZM6.92,27.559a10.444,10.444,0,0,1,19.928,0,14.354,14.354,0,0,1-9.964,4.033A14.606,14.606,0,0,1,6.92,27.559Zm21.51-1.265a12.4,12.4,0,0,0-23.091,0,14.907,14.907,0,1,1,23.091,0Z" transform="translate(-11 6)"/>
    <path id="Path_22" data-name="Path 22" class="cls-1" d="M32.6,11a6.6,6.6,0,1,0,6.6,6.6A6.615,6.615,0,0,0,32.6,11Zm0,11.625A5.022,5.022,0,1,1,37.625,17.6,5.029,5.029,0,0,1,32.6,22.625Z" transform="translate(-26.72 -0.651)"/>
  </g>
</svg>
